<svg width="105" height="94" viewBox="0 0 105 94" fill="none" xmlns="http://www.w3.org/2000/svg">
<path d="M104.285 66.0898C103.77 64.657 103.587 64.1242 103.495 63.9038C102.979 62.5209 102.033 61.3396 100.797 60.5331C99.5604 59.7265 98.0983 59.337 96.6246 59.4216C96.349 59.4216 96.0735 59.44 95.7796 59.4583C93.5017 59.642 91.2606 60.0278 89.093 60.3768C87.2376 60.6891 85.3088 61.0014 83.4351 61.2035C79.1488 61.6921 74.8342 61.8885 70.5212 61.7913C66.8877 61.6822 63.2632 61.3694 59.6647 60.8544C59.8231 59.579 59.6128 58.2849 59.0585 57.1254C58.6017 56.1902 57.9483 55.3647 57.143 54.7052C56.3377 54.0458 55.3996 53.568 54.3926 53.3045L36.9782 48.5651C34.2283 47.831 31.3415 47.7743 28.5649 48.3998L21.07 50.0714V43.8257C21.07 42.8513 20.683 41.9169 19.994 41.2279C19.305 40.5389 18.3705 40.1518 17.3961 40.1518H3.67394C2.69955 40.1518 1.76507 40.5389 1.07607 41.2279C0.387074 41.9169 0 42.8513 0 43.8257V89.75C0.00290742 90.7234 0.390916 91.6562 1.07928 92.3446C1.76765 93.033 2.70044 93.421 3.67394 93.4239H17.3961C18.3696 93.421 19.3024 93.033 19.9907 92.3446C20.6791 91.6562 21.0671 90.7234 21.07 89.75V84.9371L51.4351 90.448C52.8294 90.6986 54.2436 90.8216 55.6602 90.8154C58.6152 90.8169 61.544 90.2623 64.2939 89.1805L100.152 74.9807C101.871 74.3394 103.268 73.047 104.042 71.3831C104.815 69.7191 104.903 67.8176 104.285 66.0898ZM17.3961 89.75H3.67394V43.8257H17.3961V89.75ZM98.7922 71.564L62.9529 85.7637C59.5042 87.1242 55.7438 87.4933 52.0964 86.8292L21.07 81.208V53.8372L29.3731 51.9819C31.568 51.4914 33.8487 51.5355 36.023 52.1105L53.4191 56.8498C53.9208 56.9737 54.3895 57.2055 54.7924 57.5291C55.1953 57.8527 55.5228 58.2603 55.752 58.7236C55.9513 59.1345 56.0593 59.5836 56.0688 60.0401C56.0784 60.4967 55.9891 60.9499 55.8071 61.3688C55.4867 62.0667 54.9578 62.6481 54.2933 63.033C53.6287 63.4179 52.8612 63.5873 52.0964 63.518L36.9966 60.3952C36.5217 60.2972 36.0274 60.3909 35.6213 60.6558C35.2153 60.9208 34.9304 61.3355 34.8289 61.8097C34.7305 62.2868 34.8237 62.7834 35.0883 63.1924C35.353 63.6014 35.7678 63.8899 36.2434 63.9956L51.4535 67.1369C51.5135 67.1521 51.5754 67.1582 51.6372 67.1552C51.8809 67.1853 52.1265 67.1976 52.372 67.192C53.5014 67.1927 54.6165 66.9388 55.6343 66.449C56.652 65.9592 57.5462 65.2462 58.2503 64.363C62.2776 64.9777 66.3388 65.3458 70.411 65.4652C74.8895 65.566 79.3697 65.3635 83.8209 64.859C85.8048 64.6386 87.7887 64.3263 89.6992 63.9956C91.7933 63.6466 93.961 63.2976 96.0918 63.1139C96.8836 62.9588 97.7046 63.0757 98.4215 63.4459C99.1385 63.816 99.7093 64.4176 100.041 65.1529V65.1713L100.831 67.3389C101.117 68.1698 101.063 69.0798 100.681 69.8711C100.299 70.6623 99.6204 71.2708 98.7922 71.564Z" fill="black"/>
<path d="M95.3752 26.099L91.4441 21.084L92.3443 14.7832C92.3971 14.3759 92.3142 13.9626 92.1083 13.6072C91.9024 13.2519 91.585 12.9743 91.2053 12.8177L85.3087 10.4664L82.939 4.55131C82.7841 4.17031 82.507 3.85163 82.1511 3.64544C81.7953 3.43925 81.381 3.35726 80.9734 3.41239L74.6726 4.31251L69.6761 0.399762C69.3529 0.140993 68.9512 0 68.5371 0C68.1231 0 67.7214 0.140993 67.3982 0.399762L62.4017 4.31251L56.1009 3.41239C55.6933 3.35726 55.279 3.43925 54.9231 3.64544C54.5673 3.85163 54.2901 4.17031 54.1353 4.55131L51.7656 10.4664L45.8689 12.8177C45.4893 12.9743 45.1719 13.2519 44.966 13.6072C44.7601 13.9626 44.6771 14.3759 44.73 14.7832L45.6301 21.084L41.699 26.099C41.4491 26.4225 41.3135 26.8198 41.3135 27.2287C41.3135 27.6376 41.4491 28.0349 41.699 28.3584L45.6301 33.3734L44.73 39.6558C44.6686 40.064 44.7478 40.4811 44.9548 40.8383C45.1618 41.1955 45.4842 41.4716 45.8689 41.6213L51.7656 43.991L54.1353 49.8877C54.2877 50.2705 54.5644 50.5909 54.9209 50.7974C55.2774 51.004 55.693 51.0847 56.1009 51.0266L62.4017 50.1265L67.3982 54.0576C67.7244 54.3092 68.1252 54.4449 68.5371 54.4434C68.9486 54.4419 69.3484 54.3065 69.6761 54.0576L74.6726 50.1265L80.9734 51.0266C81.3791 51.086 81.793 51.0079 82.1492 50.8049C82.5054 50.6018 82.7834 50.2854 82.939 49.9061L85.3087 43.991L91.2053 41.6213C91.5881 41.4689 91.9085 41.1922 92.1151 40.8357C92.3216 40.4792 92.4023 40.0637 92.3443 39.6558L91.4441 33.3734L95.3752 28.3584C95.6252 28.0349 95.7608 27.6376 95.7608 27.2287C95.7608 26.8198 95.6252 26.4225 95.3752 26.099ZM88.0641 31.7201C87.9102 31.9151 87.7982 32.1397 87.735 32.3799C87.6718 32.6201 87.6588 32.8707 87.6967 33.1162L88.505 38.7557L83.1961 40.8682C82.9658 40.9606 82.7571 41.0997 82.5833 41.2767C82.4094 41.4538 82.274 41.6649 82.1858 41.8969L80.0549 47.1874L74.4154 46.3791C74.1687 46.3454 73.9178 46.3623 73.6778 46.4286C73.4378 46.4949 73.2138 46.6093 73.0193 46.7649L68.5371 50.2735L64.0549 46.7649C63.7303 46.5081 63.3299 46.366 62.916 46.3607C62.8242 46.3607 62.7323 46.3791 62.6588 46.3791L57.001 47.1874L54.8885 41.8969C54.7961 41.6644 54.6572 41.4533 54.4803 41.2764C54.3034 41.0995 54.0922 40.9606 53.8598 40.8682L48.5693 38.7557L49.3775 33.1162C49.4111 32.8707 49.3959 32.6211 49.3328 32.3816C49.2698 32.142 49.1601 31.9172 49.0102 31.7201L45.4832 27.2195L49.0102 22.7373C49.1601 22.5402 49.2698 22.3154 49.3328 22.0758C49.3959 21.8363 49.4111 21.5866 49.3775 21.3412L48.5693 15.7017L53.8598 13.5708C54.0917 13.4826 54.3029 13.3473 54.4799 13.1734C54.657 12.9995 54.7961 12.7908 54.8885 12.5605L57.001 7.27003L62.6588 8.05992C62.9043 8.09679 63.1547 8.08322 63.3947 8.02006C63.6348 7.95689 63.8594 7.84544 64.0549 7.69253L68.5371 4.16555L73.0193 7.69253C73.2149 7.84544 73.4395 7.95689 73.6795 8.02006C73.9196 8.08322 74.17 8.09679 74.4154 8.05992L80.0549 7.27003L82.1858 12.5605C82.2773 12.7884 82.414 12.9954 82.5876 13.169C82.7612 13.3427 82.9683 13.4794 83.1961 13.5708L88.505 15.7017L87.6967 21.3412C87.6588 21.5867 87.6718 21.8373 87.735 22.0775C87.7982 22.3177 87.9102 22.5423 88.0641 22.7373L91.5911 27.2195L88.0641 31.7201Z" fill="black"/>
<path d="M59.3522 15.2792C58.2623 15.2792 57.1968 15.6024 56.2905 16.208C55.3843 16.8135 54.6779 17.6742 54.2608 18.6812C53.8437 19.6882 53.7346 20.7963 53.9472 21.8653C54.1598 22.9343 54.6847 23.9162 55.4554 24.6869C56.2261 25.4577 57.2081 25.9825 58.2771 26.1952C59.3461 26.4078 60.4542 26.2987 61.4611 25.8816C62.4681 25.4644 63.3288 24.7581 63.9344 23.8518C64.5399 22.9456 64.8631 21.8801 64.8631 20.7901C64.8631 19.3286 64.2825 17.9268 63.249 16.8933C62.2155 15.8598 60.8138 15.2792 59.3522 15.2792ZM59.3522 22.6271C58.9889 22.6271 58.6337 22.5194 58.3316 22.3175C58.0296 22.1157 57.7941 21.8288 57.6551 21.4931C57.516 21.1575 57.4797 20.7881 57.5505 20.4318C57.6214 20.0754 57.7964 19.7481 58.0533 19.4912C58.3102 19.2343 58.6375 19.0593 58.9938 18.9885C59.3502 18.9176 59.7195 18.954 60.0552 19.093C60.3909 19.232 60.6777 19.4675 60.8796 19.7696C61.0814 20.0717 61.1892 20.4268 61.1892 20.7901C61.1892 21.2773 60.9956 21.7446 60.6511 22.0891C60.3066 22.4336 59.8394 22.6271 59.3522 22.6271Z" fill="black"/>
<path d="M77.7221 28.138C76.6321 28.138 75.5667 28.4612 74.6604 29.0668C73.7541 29.6723 73.0478 30.533 72.6307 31.54C72.2136 32.547 72.1044 33.655 72.3171 34.724C72.5297 35.793 73.0546 36.775 73.8253 37.5457C74.596 38.3164 75.578 38.8413 76.647 39.0539C77.716 39.2666 78.824 39.1574 79.831 38.7403C80.838 38.3232 81.6987 37.6169 82.3042 36.7106C82.9098 35.8043 83.233 34.7389 83.233 33.6489C83.233 32.1873 82.6524 30.7856 81.6189 29.7521C80.5854 28.7186 79.1837 28.138 77.7221 28.138ZM77.7221 35.4859C77.3588 35.4859 77.0036 35.3781 76.7015 35.1763C76.3994 34.9744 76.164 34.6875 76.025 34.3519C75.8859 34.0162 75.8495 33.6469 75.9204 33.2905C75.9913 32.9342 76.1663 32.6069 76.4232 32.35C76.6801 32.0931 77.0074 31.9181 77.3637 31.8472C77.7201 31.7764 78.0894 31.8127 78.4251 31.9518C78.7607 32.0908 79.0476 32.3263 79.2495 32.6283C79.4513 32.9304 79.5591 33.2856 79.5591 33.6489C79.5591 34.1361 79.3655 34.6033 79.021 34.9478C78.6765 35.2923 78.2093 35.4859 77.7221 35.4859Z" fill="black"/>
<path d="M57.9837 36.7203C58.145 36.8999 58.3402 37.0459 58.5579 37.15C58.7757 37.2542 59.0119 37.3144 59.253 37.3272C59.494 37.34 59.7353 37.3051 59.9629 37.2246C60.1904 37.1441 60.3999 37.0196 60.5794 36.8581L78.949 20.3253C79.3113 19.9994 79.5292 19.5429 79.5549 19.0563C79.5805 18.5697 79.4118 18.0928 79.0859 17.7306C78.76 17.3684 78.3035 17.1505 77.8169 17.1248C77.3303 17.0991 76.8534 17.2678 76.4912 17.5938L58.1215 34.1265C57.7593 34.4522 57.5414 34.9084 57.5155 35.3949C57.4897 35.8813 57.6581 36.358 57.9837 36.7203Z" fill="black"/>
</svg>
