<svg width="83" height="110" viewBox="0 0 83 110" fill="none" xmlns="http://www.w3.org/2000/svg">
<path d="M79.0625 34.375H61.875V20.625C61.875 9.23484 52.6402 0 41.25 0C29.8598 0 20.625 9.23484 20.625 20.625V34.375H3.4375C1.53828 34.375 0 35.9133 0 37.8125V103.125C0 106.925 3.07484 110 6.875 110H75.625C79.4252 110 82.5 106.925 82.5 103.125V37.8125C82.5 35.9133 80.9617 34.375 79.0625 34.375ZM24.0625 20.625C24.0625 11.1341 31.7591 3.4375 41.25 3.4375C50.7409 3.4375 58.4375 11.1341 58.4375 20.625V41.25H55V20.625C55 13.0316 48.8434 6.875 41.25 6.875C33.6566 6.875 27.5 13.0316 27.5 20.625V41.25H24.0625V20.625ZM51.5625 20.625V34.375H30.9375V20.625C30.9375 14.9308 35.5558 10.3125 41.25 10.3125C46.9442 10.3125 51.5625 14.9308 51.5625 20.625ZM79.0625 103.125C79.0625 105.022 77.5225 106.562 75.625 106.562H6.875C4.9775 106.562 3.4375 105.022 3.4375 103.125V99.6875H79.0625V103.125ZM79.0625 96.25H3.4375V39.5312C3.4375 38.5808 4.20578 37.8125 5.15625 37.8125H20.625V42.9688C20.625 43.9192 21.3933 44.6875 22.3438 44.6875H29.2188C30.1692 44.6875 30.9375 43.9192 30.9375 42.9688V37.8125H51.5625V42.9688C51.5625 43.9192 52.3308 44.6875 53.2812 44.6875H60.1562C61.1067 44.6875 61.875 43.9192 61.875 42.9688V37.8125H77.3438C78.2942 37.8125 79.0625 38.5808 79.0625 39.5312V96.25Z" fill="#231F20"/>
<path d="M48.125 58.4375C46.2275 58.4375 44.5088 59.2075 43.2644 60.4519L41.25 62.4525L39.2356 60.4519C37.9912 59.2075 36.2725 58.4375 34.375 58.4375C30.5783 58.4375 27.5 61.5158 27.5 65.3125C27.5 67.21 28.7255 68.9838 29.9716 70.2264L40.0348 80.2914C40.7069 80.9634 41.7931 80.9634 42.4652 80.2914L52.5027 70.2522C53.747 69.0095 55 67.21 55 65.3125C55 61.5158 51.9217 58.4375 48.125 58.4375ZM50.1119 67.7841L41.25 76.6459L32.3881 67.7841C31.7642 67.1619 30.9375 66.263 30.9375 65.3125C30.9375 63.415 32.4775 61.875 34.375 61.875C35.3255 61.875 36.1848 62.26 36.8053 62.8822L40.0348 66.098C40.7069 66.77 41.7931 66.77 42.4652 66.098L45.6947 62.8822C46.3152 62.26 47.1745 61.875 48.125 61.875C50.0225 61.875 51.5625 63.415 51.5625 65.3125C51.5625 66.263 50.7358 67.1619 50.1119 67.7841Z" fill="#231F20"/>
</svg>
