<svg width="79" height="94" viewBox="0 0 79 94" fill="none" xmlns="http://www.w3.org/2000/svg">
<path d="M67.8717 27.5256L40.616 0.477191C39.9729 -0.159338 38.9382 -0.159338 38.2984 0.478839L11.0511 27.5287C-3.68371 42.2751 -3.68371 66.2689 11.0511 81.0153L12.7042 82.6683C19.8495 89.8203 29.3535 93.7581 39.4647 93.7581C49.5741 93.7581 59.0766 89.8203 66.2236 82.6683L67.8767 81.0153C82.6115 66.2689 82.6115 42.2751 67.8717 27.5256ZM65.5476 78.6894L63.8962 80.3425C57.371 86.8726 48.6942 90.4683 39.4649 90.4683C30.2338 90.4683 21.5555 86.8726 15.0303 80.3425L13.379 78.6894C-0.0762245 65.2262 -0.0762245 43.3196 13.374 29.8597L39.4565 3.96272L65.5476 29.8547C79.0026 43.3196 79.0026 65.226 65.5476 78.6894Z" fill="black"/>
<path d="M59.9307 47.8759L54.2608 45.041V37.8323C54.2608 37.2089 53.9088 36.6398 53.3512 36.3618L46.7717 33.072C46.3095 32.84 45.7634 32.84 45.3012 33.072L39.4569 35.9941L33.6126 33.072C33.1504 32.84 32.6043 32.84 32.1421 33.072L25.5626 36.3618C25.005 36.6398 24.653 37.2089 24.653 37.8323V45.041L18.9831 47.8759C18.4254 48.1539 18.0735 48.723 18.0735 49.3463V57.5707C18.0735 58.194 18.4254 58.7632 18.9831 59.0428L24.653 61.8777V69.0848C24.653 69.7081 25.005 70.2773 25.5626 70.5569L32.1421 73.8467C32.3725 73.9618 32.6257 74.0193 32.8774 74.0193C33.129 74.0193 33.3824 73.9618 33.6126 73.8467L39.4569 70.9246L45.3012 73.8467C45.5316 73.9618 45.7848 74.0193 46.0364 74.0193C46.288 74.0193 46.5415 73.9618 46.7717 73.8467L53.3512 70.5569C53.9088 70.2773 54.2608 69.7081 54.2608 69.0848V61.8777L59.9307 59.0428C60.4883 58.7632 60.8403 58.194 60.8403 57.5707V49.3463C60.8405 48.723 60.4883 48.1539 59.9307 47.8759ZM34.5223 50.3638L39.4569 47.8964L44.3915 50.3638V56.5542L39.4569 59.0215L34.5223 56.5542V50.3638ZM46.0364 36.3814L50.971 38.8488V45.0401L46.0364 47.5074L41.1019 45.0401V38.8488L46.0364 36.3814ZM27.9428 38.8488L32.8774 36.3814L37.8119 38.8488V45.0401L32.8774 47.5074L27.9428 45.0401V38.8488ZM21.3634 50.3629L26.2973 47.896L31.2327 50.3638V56.5542L26.2982 59.0215L21.3636 56.5542V50.3629H21.3634ZM32.8775 70.5356L27.943 68.0683V61.8779L32.8775 59.4105L37.8121 61.8779V68.0683L32.8775 70.5356ZM46.0364 70.5356L41.1019 68.0683V61.8779L46.0364 59.4105L50.971 61.8779V68.0683L46.0364 70.5356ZM57.5507 56.5542L52.6162 59.0215L47.6816 56.5542V50.3638L52.6171 47.896L57.5509 50.3629V56.5542H57.5507Z" fill="black"/>
</svg>
