<svg width="31" height="26" viewBox="0 0 31 26" fill="none" xmlns="http://www.w3.org/2000/svg">
<path d="M15.4765 5.80579C15.4765 5.80579 19.8457 0.0909517 24.0376 0.00744193C26.801 -0.0447517 29.9085 1.67763 30.7844 4.17249C31.1494 5.23724 30.9825 7.79473 30.7844 8.9743C30.263 12.0746 27.6248 14.7052 24.0376 18.1082C19.0011 22.8891 15.4765 25.7702 15.4765 25.7702C15.4765 25.7702 12.0458 23.0979 7.249 18.1082C3.74528 14.4755 0.794227 12.0746 0.220701 8.9743C-0.0191366 7.69034 -0.123414 5.15373 0.220701 4.17249C1.11749 1.60456 4.3918 -0.128262 7.249 0.00744193C11.3575 0.205778 15.4765 5.80579 15.4765 5.80579Z" fill="#9CA934"/>
</svg>
