<svg width="118" height="88" viewBox="0 0 118 88" fill="none" xmlns="http://www.w3.org/2000/svg">
<path d="M6.71125 0C3.03297 0 0 3.05659 0 6.76351V68.973C0 72.9214 3.16203 76.1081 7.08 76.1081H16.7413C17.8659 82.853 23.683 88 30.68 88C37.677 88 43.4941 82.853 44.6188 76.1081H66.4488C68.1911 76.1081 69.7491 75.3649 70.9475 74.25C72.1736 75.337 73.7408 76.0895 75.52 76.1081H78.1013C79.2259 82.853 85.043 88 92.04 88C99.8298 88 106.2 81.5802 106.2 73.7297C106.2 65.8792 99.8298 59.4595 92.04 59.4595C85.043 59.4595 79.2259 64.6064 78.1013 71.3513H75.52C75.0775 71.3513 74.4045 71.0448 73.8975 70.5338C73.3905 70.0228 73.16 69.4096 73.16 68.973V23.7838C73.16 22.8919 74.635 21.4054 75.52 21.4054H94.4C96.253 21.4054 98.8619 23.4029 100.669 25.5676C100.687 25.5954 100.724 25.614 100.743 25.6419L101.111 26.1622H89.68C85.9188 26.1622 82.6 29.228 82.6 33.2973V42.8108C82.6 44.7897 83.485 46.527 84.7388 47.7905C85.9925 49.0541 87.7164 49.9459 89.68 49.9459H113.28V68.973C113.28 69.8649 111.805 71.3513 110.92 71.3513H106.2V76.1081H110.92C114.838 76.1081 118 72.9214 118 68.973V46.0811C118 40.6368 114.239 35.8243 114.239 35.8243H114.165L104.43 22.7432V22.6689L104.356 22.5946C102.181 19.9468 98.9172 16.6486 94.4 16.6486H75.52C74.6811 16.6486 73.9067 16.8252 73.16 17.0946V6.91216C73.16 3.26098 70.3022 0 66.5225 0H6.71125ZM6.71125 4.75676H66.5225C67.5366 4.75676 68.44 5.74156 68.44 6.91216V69.3446C68.44 70.4595 67.5642 71.3513 66.4488 71.3513H44.6188C43.4941 64.6064 37.677 59.4595 30.68 59.4595C23.683 59.4595 17.8659 64.6064 16.7413 71.3513H7.08C6.195 71.3513 4.72 69.8556 4.72 68.973V6.76351C4.72 5.64865 5.58656 4.75676 6.71125 4.75676ZM89.68 30.9189H104.651L110.404 38.6486C110.404 38.6486 112.543 42.337 112.985 45.1892H89.68C89.2836 45.1892 88.6475 44.8919 88.1313 44.3716C87.615 43.8513 87.32 43.2103 87.32 42.8108V33.2973C87.32 32.0988 88.7213 30.9189 89.68 30.9189ZM30.68 64.2162C35.9255 64.2162 40.12 68.4434 40.12 73.7297C40.12 79.016 35.9255 83.2432 30.68 83.2432C25.4345 83.2432 21.24 79.016 21.24 73.7297C21.24 68.4434 25.4345 64.2162 30.68 64.2162ZM92.04 64.2162C97.2855 64.2162 101.48 68.4434 101.48 73.7297C101.48 79.016 97.2855 83.2432 92.04 83.2432C86.7945 83.2432 82.6 79.016 82.6 73.7297C82.6 68.4434 86.7945 64.2162 92.04 64.2162Z" fill="black"/>
</svg>
